# xmcd
#
# Track frame offsets:
#	150
#	9774
#	19053
#	39361
#	79891
#	111944
#	122074
#	158008
#	186985
#	196349
#	217050
#	232140
#	263783
#	275145
#	335957
#
# Disc length: 4707 seconds
#
# Revision: 0
# Processed by: cddbd v1.5.2PL0 Copyright (c) Steve Scherf et al.
# Submitted via: SynApp - FreeCDDB Version: 2.3
#
DISCID=da12610f
DTITLE=sss - Main Title
DYEAR=2007
DGENRE=Alternative
TTITLE0=01 The Sea Hawk - jjj
TTITLE1=02 The Sea Hawk - Spain- King and Alvarez - Doña Maria
TTITLE2=03 The Sea Hawk - The Big Drum
TTITLE3=04 The Sea Hawk - The Albatross - Battle
TTITLE4=05 The Sea Hawk - Slaves Release
TTITLE5=06 The Sea Hawk - Night Banquet
TTITLE6=07 The Sea Hawk - Love Scene on the Boat - The Throne Room
TTITLE7=08 The Sea Hawk - The Sea Hawks - The Monkey
TTITLE8=09 The Sea Hawk - Map of Panama
TTITLE9=10 The Sea Hawk - Rose Garden
TTITLE10=11 The Sea Hawk - Albatross-Kroner - Chart Maker
TTITLE11=12 The Sea Hawk - The Chess Game - Farewell
TTITLE12=13 The Sea Hawk - Thorpe's Men Hiding - Gold Caravan
TTITLE13=14 The Sea Hawk - Attack - You Know My Name
TTITLE14=15 The Sea Hawk - Maria's Song - After Maria's Song
EXTD=
EXTT0=
EXTT1=
EXTT2=
EXTT3=
EXTT4=
EXTT5=
EXTT6=
EXTT7=
EXTT8=
EXTT9=
EXTT10=
EXTT11=
EXTT12=
EXTT13=
EXTT14=
PLAYORDER=
